<mxfile host="app.diagrams.net" modified="2022-02-24T22:08:56.647Z" agent="5.0 (Windows NT 6.1; Win64; x64) AppleWebKit/537.36 (KHTML, like Gecko) Chrome/97.0.4692.99 Safari/537.36" etag="MBkv4K9nur5h-MJn7svq" version="16.6.3" type="github">
  <diagram name="Page-1" id="97916047-d0de-89f5-080d-49f4d83e522f">
    <mxGraphModel dx="2990.5" dy="663" grid="1" gridSize="10" guides="1" tooltips="1" connect="1" arrows="1" fold="1" page="1" pageScale="1.5" pageWidth="1169" pageHeight="827" background="none" math="0" shadow="0">
      <root>
        <mxCell id="0" />
        <mxCell id="1" parent="0" />
        <mxCell id="3wY1JPYkspnNULd0IFpD-55" value="Data Models" style="text;strokeColor=none;fillColor=none;html=1;fontSize=24;fontStyle=1;verticalAlign=middle;align=center;" parent="1" vertex="1">
          <mxGeometry x="-896.37" y="60" width="176.5" height="80" as="geometry" />
        </mxCell>
        <mxCell id="Fs2sAphEXOrVfATNVQyW-58" style="edgeStyle=orthogonalEdgeStyle;rounded=0;orthogonalLoop=1;jettySize=auto;html=1;exitX=0.5;exitY=1;exitDx=0;exitDy=0;entryX=0.5;entryY=0;entryDx=0;entryDy=0;" edge="1" parent="1" source="3wY1JPYkspnNULd0IFpD-56" target="3wY1JPYkspnNULd0IFpD-60">
          <mxGeometry relative="1" as="geometry" />
        </mxCell>
        <mxCell id="Fs2sAphEXOrVfATNVQyW-59" style="edgeStyle=orthogonalEdgeStyle;rounded=0;orthogonalLoop=1;jettySize=auto;html=1;exitX=0.5;exitY=1;exitDx=0;exitDy=0;entryX=0.5;entryY=0;entryDx=0;entryDy=0;" edge="1" parent="1" source="3wY1JPYkspnNULd0IFpD-56" target="3wY1JPYkspnNULd0IFpD-64">
          <mxGeometry relative="1" as="geometry" />
        </mxCell>
        <mxCell id="Fs2sAphEXOrVfATNVQyW-60" style="edgeStyle=orthogonalEdgeStyle;rounded=0;orthogonalLoop=1;jettySize=auto;html=1;exitX=0.5;exitY=1;exitDx=0;exitDy=0;entryX=0.5;entryY=0;entryDx=0;entryDy=0;" edge="1" parent="1" source="3wY1JPYkspnNULd0IFpD-56" target="3wY1JPYkspnNULd0IFpD-66">
          <mxGeometry relative="1" as="geometry" />
        </mxCell>
        <mxCell id="Fs2sAphEXOrVfATNVQyW-62" style="edgeStyle=orthogonalEdgeStyle;rounded=0;orthogonalLoop=1;jettySize=auto;html=1;exitX=0.5;exitY=1;exitDx=0;exitDy=0;entryX=0.5;entryY=0;entryDx=0;entryDy=0;" edge="1" parent="1" source="3wY1JPYkspnNULd0IFpD-56" target="Fs2sAphEXOrVfATNVQyW-56">
          <mxGeometry relative="1" as="geometry" />
        </mxCell>
        <mxCell id="3wY1JPYkspnNULd0IFpD-56" value="&lt;span style=&quot;font-size: 20px&quot;&gt;BANCO DE DADOS&lt;/span&gt;" style="shape=cylinder;whiteSpace=wrap;html=1;boundedLbl=1;backgroundOutline=1;" parent="1" vertex="1">
          <mxGeometry x="-880" y="170" width="130" height="160" as="geometry" />
        </mxCell>
        <mxCell id="3wY1JPYkspnNULd0IFpD-60" value="&lt;p style=&quot;text-align: center ; margin: 4px 0px 0px&quot;&gt;tb_pacientes&lt;/p&gt;&lt;hr&gt;&lt;p style=&quot;margin: 0px&quot;&gt;&lt;/p&gt;&lt;ul&gt;&lt;li&gt;id_paciente: int (pk)&lt;/li&gt;&lt;li&gt;nome_paciente: char&amp;nbsp;&lt;/li&gt;&lt;li&gt;cpf: varchar&lt;/li&gt;&lt;li&gt;idade: int&lt;/li&gt;&lt;li&gt;nascimento: datetime&lt;/li&gt;&lt;li&gt;telefone: varchar&lt;/li&gt;&lt;li&gt;ultima_consulta: datetime&lt;/li&gt;&lt;/ul&gt;&lt;p&gt;&lt;/p&gt;&lt;p style=&quot;margin: 0px&quot;&gt;&lt;br&gt;&lt;/p&gt;" style="shape=rect;html=1;overflow=fill;whiteSpace=wrap;fontSize=20;align=left;" parent="1" vertex="1">
          <mxGeometry x="-1550" y="400" width="343.75" height="240" as="geometry" />
        </mxCell>
        <mxCell id="3wY1JPYkspnNULd0IFpD-64" value="&lt;p style=&quot;text-align: center ; margin: 4px 0px 0px&quot;&gt;tb_horarios&lt;/p&gt;&lt;hr&gt;&lt;p style=&quot;margin: 0px&quot;&gt;&lt;/p&gt;&lt;ul&gt;&lt;li&gt;id_horario: int (pk)&lt;/li&gt;&lt;li&gt;horario: time&lt;/li&gt;&lt;li&gt;disponivel: int&lt;/li&gt;&lt;/ul&gt;&lt;p&gt;&lt;/p&gt;&lt;p style=&quot;margin: 0px&quot;&gt;&lt;br&gt;&lt;/p&gt;" style="shape=rect;html=1;overflow=fill;whiteSpace=wrap;fontSize=20;align=left;" parent="1" vertex="1">
          <mxGeometry x="-1160" y="400" width="343.75" height="240" as="geometry" />
        </mxCell>
        <mxCell id="3wY1JPYkspnNULd0IFpD-66" value="&lt;p style=&quot;text-align: center ; margin: 4px 0px 0px&quot;&gt;tb_dentistas&lt;/p&gt;&lt;hr&gt;&lt;p style=&quot;margin: 0px&quot;&gt;&lt;/p&gt;&lt;ul&gt;&lt;li&gt;id_doutor: int (pk)&lt;/li&gt;&lt;li&gt;nome: char&lt;/li&gt;&lt;li&gt;usuario: varchar&lt;/li&gt;&lt;li&gt;senha: varchar&lt;/li&gt;&lt;/ul&gt;" style="shape=rect;html=1;overflow=fill;whiteSpace=wrap;fontSize=20;align=left;" parent="1" vertex="1">
          <mxGeometry x="-770" y="400" width="343.75" height="240" as="geometry" />
        </mxCell>
        <mxCell id="Fs2sAphEXOrVfATNVQyW-56" value="&lt;p style=&quot;text-align: center ; margin: 4px 0px 0px&quot;&gt;tb_agenda&lt;/p&gt;&lt;hr&gt;&lt;p style=&quot;margin: 0px&quot;&gt;&lt;/p&gt;&lt;ul&gt;&lt;li&gt;id_agendamento: int (pk)&lt;/li&gt;&lt;li&gt;id_doutor: int&lt;/li&gt;&lt;li&gt;nome_doutor: char&lt;/li&gt;&lt;li&gt;id_paciente: int&lt;/li&gt;&lt;li&gt;nome_paciente: char&lt;/li&gt;&lt;li&gt;data_agendamento: datetime&lt;/li&gt;&lt;li&gt;confirma: int&lt;/li&gt;&lt;/ul&gt;" style="shape=rect;html=1;overflow=fill;whiteSpace=wrap;fontSize=20;align=left;" vertex="1" parent="1">
          <mxGeometry x="-390" y="400" width="343.75" height="240" as="geometry" />
        </mxCell>
        <mxCell id="Fs2sAphEXOrVfATNVQyW-64" value="onMessage" style="ellipse;html=1;shape=startState;fillColor=#000000;strokeColor=#ff0000;" vertex="1" parent="1">
          <mxGeometry x="800" y="40" width="80" height="80" as="geometry" />
        </mxCell>
        <mxCell id="Fs2sAphEXOrVfATNVQyW-65" value="" style="edgeStyle=orthogonalEdgeStyle;html=1;verticalAlign=bottom;endArrow=open;endSize=8;strokeColor=#ff0000;rounded=0;entryX=0.5;entryY=0;entryDx=0;entryDy=0;" edge="1" source="Fs2sAphEXOrVfATNVQyW-64" parent="1" target="Fs2sAphEXOrVfATNVQyW-75">
          <mxGeometry relative="1" as="geometry">
            <mxPoint x="860" y="150" as="targetPoint" />
          </mxGeometry>
        </mxCell>
        <mxCell id="Fs2sAphEXOrVfATNVQyW-71" value="&lt;p style=&quot;margin: 0px ; margin-top: 4px ; text-align: center ; text-decoration: underline&quot;&gt;Modulos&lt;/p&gt;&lt;hr&gt;&lt;p style=&quot;margin: 0px ; margin-left: 8px&quot;&gt;npm i venom-bot&lt;/p&gt;&lt;p style=&quot;margin: 0px ; margin-left: 8px&quot;&gt;npm i mysql2&lt;/p&gt;&lt;p style=&quot;margin: 0px ; margin-left: 8px&quot;&gt;&lt;br&gt;&lt;/p&gt;&lt;p style=&quot;margin: 0px ; margin-left: 8px&quot;&gt;appserv 9.3.0&lt;/p&gt;&lt;p style=&quot;margin: 0px ; margin-left: 8px&quot;&gt;&lt;br&gt;&lt;/p&gt;" style="verticalAlign=top;align=left;overflow=fill;fontSize=12;fontFamily=Helvetica;html=1;" vertex="1" parent="1">
          <mxGeometry x="40" y="40" width="110" height="100" as="geometry" />
        </mxCell>
        <mxCell id="Fs2sAphEXOrVfATNVQyW-75" value="&lt;font color=&quot;#f00c0c&quot;&gt;verifyRegistered&amp;nbsp;&lt;/font&gt;" style="rhombus;whiteSpace=wrap;html=1;fillColor=#ffffc0;strokeColor=#ff0000;" vertex="1" parent="1">
          <mxGeometry x="780" y="160" width="120" height="60" as="geometry" />
        </mxCell>
        <mxCell id="Fs2sAphEXOrVfATNVQyW-76" value="no" style="edgeStyle=orthogonalEdgeStyle;html=1;align=left;verticalAlign=bottom;endArrow=open;endSize=8;strokeColor=#ff0000;rounded=0;entryX=0.5;entryY=0;entryDx=0;entryDy=0;" edge="1" source="Fs2sAphEXOrVfATNVQyW-75" parent="1" target="Fs2sAphEXOrVfATNVQyW-78">
          <mxGeometry x="-0.8182" relative="1" as="geometry">
            <mxPoint x="1020" y="190" as="targetPoint" />
            <mxPoint as="offset" />
          </mxGeometry>
        </mxCell>
        <mxCell id="Fs2sAphEXOrVfATNVQyW-77" value="yes" style="edgeStyle=orthogonalEdgeStyle;html=1;align=left;verticalAlign=top;endArrow=open;endSize=8;strokeColor=#ff0000;rounded=0;entryX=0.5;entryY=0;entryDx=0;entryDy=0;" edge="1" source="Fs2sAphEXOrVfATNVQyW-75" parent="1" target="Fs2sAphEXOrVfATNVQyW-79">
          <mxGeometry x="-0.2857" y="-20" relative="1" as="geometry">
            <mxPoint x="680" y="190" as="targetPoint" />
            <mxPoint as="offset" />
          </mxGeometry>
        </mxCell>
        <mxCell id="Fs2sAphEXOrVfATNVQyW-78" value="&lt;p style=&quot;margin: 0px ; margin-top: 4px ; text-align: center ; text-decoration: underline&quot;&gt;&lt;b&gt;novo-registro&lt;/b&gt;&lt;/p&gt;&lt;hr&gt;&lt;p style=&quot;text-align: center ; margin: 0px 0px 0px 8px&quot;&gt;`Olá, ${saudação}, verifiquei&amp;nbsp;&lt;/p&gt;&lt;p style=&quot;text-align: center ; margin: 0px 0px 0px 8px&quot;&gt;no sistema que você ainda&amp;nbsp;&lt;/p&gt;&lt;p style=&quot;text-align: center ; margin: 0px 0px 0px 8px&quot;&gt;não tem um cadastro, então&lt;/p&gt;&lt;p style=&quot;text-align: center ; margin: 0px 0px 0px 8px&quot;&gt;&amp;nbsp;vamos cadastrar você primeiro.&lt;/p&gt;&lt;p style=&quot;text-align: center ; margin: 0px 0px 0px 8px&quot;&gt;\nSeu nome é ${name}?`&lt;/p&gt;" style="verticalAlign=top;align=left;overflow=fill;fontSize=12;fontFamily=Helvetica;html=1;fontColor=#F00C0C;" vertex="1" parent="1">
          <mxGeometry x="980" y="205" width="200" height="115" as="geometry" />
        </mxCell>
        <mxCell id="Fs2sAphEXOrVfATNVQyW-79" value="&lt;p style=&quot;margin: 0px ; margin-top: 4px ; text-align: center ; text-decoration: underline&quot;&gt;&lt;b&gt;registrado&lt;/b&gt;&lt;/p&gt;&lt;hr&gt;&lt;p style=&quot;text-align: center ; margin: 0px 0px 0px 8px&quot;&gt;`${saudação}, ${nome}, oque&amp;nbsp;&lt;/p&gt;&lt;p style=&quot;text-align: center ; margin: 0px 0px 0px 8px&quot;&gt;gostaria?&lt;/p&gt;&lt;p style=&quot;text-align: center ; margin: 0px 0px 0px 8px&quot;&gt;&lt;span&gt;[list menu]`&lt;/span&gt;&lt;/p&gt;" style="verticalAlign=top;align=left;overflow=fill;fontSize=12;fontFamily=Helvetica;html=1;fontColor=#F00C0C;" vertex="1" parent="1">
          <mxGeometry x="530" y="205" width="200" height="85" as="geometry" />
        </mxCell>
      </root>
    </mxGraphModel>
  </diagram>
</mxfile>
